<svg xmlns="http://www.w3.org/2000/svg" id="canvas" viewBox="218.845 321.333 817.784 165.273"><path d="M 229.11,324.82 C 228.20 325.34, 228.01 325.94, 227.57 327.14 C 227.13 328.35, 227.01 329.04, 226.90 330.85 C 226.80 332.65, 226.90 333.79, 227.04 336.17 C 227.17 338.55, 227.34 339.87, 227.58 342.75 C 227.82 345.64, 228.02 347.24, 228.22 350.59 C 228.42 353.93, 228.48 355.76, 228.59 359.47 C 228.70 363.19, 228.70 365.18, 228.77 369.15 C 228.85 373.11, 228.88 375.22, 228.97 379.29 C 229.06 383.36, 229.10 385.47, 229.22 389.49 C 229.34 393.51, 229.42 395.56, 229.57 399.38 C 229.73 403.20, 229.83 405.09, 229.99 408.59 C 230.15 412.10, 230.19 413.83, 230.38 416.90 C 230.57 419.97, 230.63 421.45, 230.97 423.94 C 231.31 426.43, 231.63 427.65, 232.09 429.33 C 232.55 431.01, 232.74 431.50, 233.28 432.35 C 233.82 433.19, 234.29 433.29, 234.79 433.54 C 235.28 433.79, 235.47 433.63, 235.76 433.61 C 236.06 433.59, 235.99 433.54, 236.26 433.44 C 236.52 433.34, 236.71 433.47, 237.08 433.10 C 237.46 432.72, 237.88 432.52, 238.13 431.58 C 238.39 430.64, 238.41 430.10, 238.37 428.40 C 238.34 426.69, 238.22 425.48, 237.94 423.05 C 237.65 420.62, 237.36 419.22, 236.94 416.23 C 236.53 413.25, 236.24 411.57, 235.87 408.14 C 235.49 404.71, 235.33 402.84, 235.07 399.08 C 234.81 395.31, 234.71 393.29, 234.56 389.31 C 234.41 385.34, 234.37 383.24, 234.34 379.20 C 234.30 375.17, 234.31 373.08, 234.37 369.13 C 234.43 365.19, 234.50 363.20, 234.63 359.49 C 234.75 355.77, 234.80 353.94, 234.99 350.57 C 235.19 347.20, 235.43 345.59, 235.59 342.64 C 235.74 339.69, 235.80 338.29, 235.75 335.83 C 235.70 333.37, 235.65 332.17, 235.32 330.32 C 234.99 328.48, 234.72 327.75, 234.08 326.60 C 233.44 325.44, 233.12 324.89, 232.12 324.54 C 231.13 324.18, 230.02 324.30, 229.11 324.82" style="stroke: black; fill: black;"/><path d="M 258.03,332.86 C 257.13 333.29, 256.86 333.71, 256.39 334.78 C 255.93 335.86, 255.76 336.56, 255.70 338.23 C 255.63 339.90, 255.83 340.92, 256.07 343.14 C 256.31 345.37, 256.50 346.68, 256.91 349.36 C 257.32 352.05, 257.66 353.52, 258.12 356.56 C 258.57 359.61, 258.78 361.27, 259.19 364.58 C 259.59 367.89, 259.77 369.66, 260.16 373.12 C 260.55 376.57, 260.75 378.40, 261.13 381.86 C 261.52 385.32, 261.71 387.11, 262.09 390.44 C 262.47 393.77, 262.68 395.45, 263.03 398.52 C 263.38 401.59, 263.51 403.09, 263.84 405.77 C 264.17 408.46, 264.34 409.73, 264.69 411.94 C 265.04 414.15, 265.13 415.33, 265.59 416.84 C 266.06 418.35, 266.50 418.71, 267.01 419.48 C 267.53 420.25, 267.62 420.45, 268.17 420.71 C 268.73 420.97, 269.21 421.06, 269.79 420.78 C 270.37 420.50, 270.62 420.24, 271.07 419.32 C 271.52 418.40, 271.91 417.83, 272.05 416.18 C 272.18 414.52, 271.99 413.32, 271.77 411.04 C 271.54 408.76, 271.36 407.47, 270.94 404.78 C 270.52 402.09, 270.18 400.61, 269.67 397.58 C 269.15 394.55, 268.84 392.91, 268.37 389.63 C 267.90 386.35, 267.69 384.60, 267.31 381.17 C 266.92 377.74, 266.74 375.94, 266.45 372.50 C 266.16 369.06, 266.05 367.30, 265.86 363.98 C 265.67 360.66, 265.61 358.98, 265.51 355.89 C 265.41 352.80, 265.46 351.27, 265.34 348.54 C 265.22 345.81, 265.14 344.47, 264.91 342.22 C 264.69 339.97, 264.64 338.92, 264.22 337.30 C 263.79 335.68, 263.46 335.07, 262.79 334.13 C 262.12 333.19, 261.82 332.87, 260.87 332.61 C 259.91 332.36, 258.92 332.42, 258.03 332.86" style="stroke: black; fill: black;"/><path d="M 222.23,386.64 C 222.73 387.57, 223.29 387.86, 224.67 388.41 C 226.05 388.95, 226.96 389.18, 229.13 389.36 C 231.29 389.54, 232.70 389.54, 235.50 389.31 C 238.31 389.08, 239.96 388.59, 243.17 388.21 C 246.37 387.82, 248.13 387.67, 251.54 387.38 C 254.94 387.10, 256.76 386.98, 260.19 386.79 C 263.63 386.60, 265.43 386.52, 268.72 386.41 C 272.01 386.31, 273.65 386.37, 276.66 386.27 C 279.67 386.17, 281.32 386.25, 283.77 385.91 C 286.22 385.57, 287.29 385.21, 288.90 384.56 C 290.50 383.91, 291.26 383.47, 291.78 382.65 C 292.30 381.82, 292.16 381.11, 291.49 380.45 C 290.81 379.79, 290.04 379.67, 288.40 379.33 C 286.75 378.98, 285.71 378.74, 283.28 378.73 C 280.85 378.72, 279.23 379.04, 276.25 379.29 C 273.27 379.54, 271.67 379.75, 268.39 379.99 C 265.11 380.22, 263.31 380.29, 259.87 380.45 C 256.42 380.61, 254.60 380.71, 251.19 380.79 C 247.78 380.87, 246.03 380.93, 242.82 380.85 C 239.62 380.76, 237.96 380.39, 235.18 380.36 C 232.39 380.34, 231.01 380.42, 228.88 380.72 C 226.75 381.02, 225.87 381.27, 224.53 381.87 C 223.19 382.47, 222.64 382.77, 222.18 383.72 C 221.72 384.67, 221.73 385.70, 222.23 386.64" style="stroke: black; fill: black;"/><path d="M 303.39,394.34 C 304.13 395.10, 304.72 395.20, 306.01 395.33 C 307.30 395.47, 308.11 395.44, 309.82 395.02 C 311.54 394.60, 312.64 394.13, 314.59 393.23 C 316.55 392.33, 317.62 391.67, 319.61 390.54 C 321.60 389.40, 322.66 388.79, 324.53 387.55 C 326.41 386.30, 327.40 385.68, 328.98 384.32 C 330.56 382.95, 331.34 382.25, 332.43 380.72 C 333.53 379.19, 334.02 378.36, 334.43 376.66 C 334.84 374.97, 334.90 373.94, 334.48 372.25 C 334.06 370.56, 333.57 369.57, 332.31 368.21 C 331.06 366.85, 330.12 366.22, 328.20 365.45 C 326.28 364.67, 325.09 364.47, 322.73 364.33 C 320.36 364.19, 319.01 364.29, 316.39 364.75 C 313.77 365.21, 312.32 365.60, 309.62 366.63 C 306.93 367.65, 305.48 368.34, 302.89 369.87 C 300.30 371.40, 298.96 372.31, 296.68 374.29 C 294.40 376.27, 293.28 377.41, 291.49 379.76 C 289.71 382.11, 288.87 383.41, 287.76 386.04 C 286.66 388.66, 286.23 390.11, 285.97 392.89 C 285.70 395.66, 285.74 397.17, 286.43 399.90 C 287.11 402.63, 287.71 404.09, 289.38 406.55 C 291.05 409.01, 292.17 410.32, 294.76 412.21 C 297.36 414.11, 299.05 414.81, 302.36 416.03 C 305.68 417.25, 307.57 417.70, 311.34 418.30 C 315.11 418.89, 317.19 419.01, 321.20 419.00 C 325.20 418.99, 327.34 418.81, 331.36 418.25 C 335.38 417.68, 337.46 417.25, 341.30 416.19 C 345.14 415.12, 347.08 414.48, 350.57 412.93 C 354.07 411.38, 355.76 410.46, 358.75 408.44 C 361.75 406.42, 363.14 405.28, 365.55 402.84 C 367.96 400.41, 369.03 399.05, 370.79 396.26 C 372.56 393.48, 373.24 391.92, 374.37 388.91 C 375.50 385.89, 375.86 384.29, 376.45 381.18 C 377.03 378.07, 377.16 376.43, 377.30 373.35 C 377.45 370.26, 377.39 368.70, 377.17 365.77 C 376.95 362.84, 376.69 361.38, 376.20 358.69 C 375.71 355.99, 375.40 354.62, 374.71 352.30 C 374.02 349.98, 373.64 348.87, 372.76 347.08 C 371.89 345.29, 371.51 344.43, 370.34 343.34 C 369.17 342.26, 368.38 341.80, 366.90 341.65 C 365.41 341.50, 364.28 341.71, 362.91 342.60 C 361.55 343.49, 360.85 344.31, 360.08 346.10 C 359.32 347.89, 359.23 349.08, 359.10 351.55 C 358.96 354.01, 359.10 355.48, 359.40 358.43 C 359.70 361.38, 360.08 363.02, 360.60 366.29 C 361.11 369.55, 361.37 371.31, 361.98 374.75 C 362.60 378.18, 362.90 380.00, 363.67 383.46 C 364.43 386.92, 364.85 388.70, 365.81 392.05 C 366.77 395.40, 367.30 397.11, 368.47 400.21 C 369.64 403.31, 370.19 404.89, 371.66 407.57 C 373.12 410.25, 374.01 411.52, 375.79 413.62 C 377.57 415.72, 378.54 416.66, 380.58 418.08 C 382.61 419.50, 383.73 420.09, 385.97 420.72 C 388.21 421.35, 389.46 421.47, 391.78 421.22 C 394.10 420.98, 395.33 420.62, 397.57 419.50 C 399.81 418.38, 400.98 417.57, 403.00 415.64 C 405.02 413.71, 406.00 412.47, 407.66 409.84 C 409.32 407.22, 409.96 405.64, 411.32 402.51 C 412.69 399.38, 413.35 397.63, 414.49 394.18 C 415.62 390.72, 416.13 388.86, 417.00 385.24 C 417.87 381.62, 418.24 379.71, 418.84 376.06 C 419.43 372.42, 419.65 370.50, 419.97 367.02 C 420.30 363.53, 420.45 361.80, 420.47 358.65 C 420.48 355.50, 420.43 353.94, 420.04 351.27 C 419.66 348.60, 419.36 347.32, 418.54 345.32 C 417.72 343.32, 417.32 342.38, 415.96 341.27 C 414.61 340.16, 413.46 339.67, 411.77 339.78 C 410.07 339.89, 408.88 340.44, 407.47 341.80 C 406.06 343.17, 405.50 344.25, 404.72 346.60 C 403.93 348.94, 403.70 350.47, 403.54 353.52 C 403.38 356.57, 403.74 358.42, 403.92 361.86 C 404.10 365.30, 404.12 367.09, 404.45 370.72 C 404.77 374.36, 404.98 376.34, 405.55 380.06 C 406.12 383.77, 406.45 385.71, 407.31 389.32 C 408.17 392.92, 408.65 394.74, 409.85 398.08 C 411.05 401.43, 411.76 403.09, 413.30 406.04 C 414.85 409.00, 415.62 410.47, 417.57 412.86 C 419.52 415.26, 420.70 416.29, 423.05 418.02 C 425.40 419.74, 426.72 420.52, 429.31 421.49 C 431.91 422.47, 433.56 422.81, 436.03 422.90 C 438.51 422.99, 439.91 422.65, 441.69 421.95 C 443.47 421.24, 444.43 420.41, 444.95 419.38 C 445.47 418.34, 445.10 417.47, 444.29 416.77 C 443.48 416.07, 442.42 416.14, 440.88 415.88 C 439.33 415.62, 438.41 415.71, 436.57 415.48 C 434.73 415.26, 433.58 415.37, 431.69 414.77 C 429.80 414.16, 428.88 413.73, 427.13 412.45 C 425.39 411.17, 424.60 410.29, 422.97 408.37 C 421.35 406.46, 420.46 405.38, 418.99 402.89 C 417.51 400.40, 416.76 398.93, 415.58 395.93 C 414.41 392.94, 413.92 391.26, 413.09 387.92 C 412.27 384.57, 411.94 382.72, 411.48 379.20 C 411.01 375.69, 410.85 373.80, 410.76 370.35 C 410.67 366.91, 410.74 365.16, 411.03 361.97 C 411.32 358.79, 411.78 357.09, 412.21 354.41 C 412.64 351.73, 412.95 350.51, 413.17 348.58 C 413.39 346.65, 413.47 345.82, 413.30 344.76 C 413.12 343.69, 412.59 343.36, 412.28 343.27 C 411.97 343.17, 411.76 343.48, 411.75 344.27 C 411.75 345.06, 412.01 345.62, 412.27 347.21 C 412.54 348.80, 412.79 349.89, 413.07 352.21 C 413.36 354.53, 413.57 355.92, 413.70 358.79 C 413.84 361.66, 413.93 363.30, 413.77 366.57 C 413.61 369.84, 413.44 371.68, 412.91 375.12 C 412.38 378.56, 412.01 380.38, 411.12 383.77 C 410.24 387.15, 409.69 388.90, 408.48 392.04 C 407.27 395.18, 406.53 396.77, 405.06 399.46 C 403.59 402.15, 402.66 403.34, 401.14 405.48 C 399.62 407.61, 398.88 408.59, 397.45 410.13 C 396.02 411.67, 395.31 412.28, 393.99 413.19 C 392.66 414.09, 392.08 414.40, 390.83 414.67 C 389.59 414.94, 389.02 414.93, 387.76 414.54 C 386.49 414.16, 385.84 413.81, 384.53 412.74 C 383.22 411.68, 382.52 410.95, 381.18 409.22 C 379.85 407.49, 379.16 406.40, 377.84 404.11 C 376.51 401.81, 375.75 400.52, 374.55 397.76 C 373.35 394.99, 372.79 393.39, 371.84 390.27 C 370.89 387.15, 370.48 385.45, 369.80 382.15 C 369.13 378.85, 368.86 377.08, 368.45 373.77 C 368.05 370.46, 367.87 368.73, 367.77 365.59 C 367.67 362.46, 367.87 360.84, 367.95 358.10 C 368.03 355.35, 368.14 353.98, 368.17 351.86 C 368.19 349.74, 368.28 348.81, 368.06 347.50 C 367.84 346.18, 367.55 345.78, 367.07 345.29 C 366.60 344.81, 366.02 344.83, 365.68 345.09 C 365.34 345.35, 365.25 345.68, 365.40 346.59 C 365.54 347.50, 365.93 348.12, 366.39 349.64 C 366.84 351.16, 367.18 352.13, 367.68 354.20 C 368.18 356.26, 368.46 357.54, 368.88 359.98 C 369.29 362.42, 369.51 363.76, 369.76 366.39 C 370.00 369.01, 370.15 370.39, 370.10 373.11 C 370.05 375.82, 369.95 377.27, 369.52 379.96 C 369.09 382.66, 368.81 384.03, 367.93 386.60 C 367.06 389.17, 366.55 390.45, 365.16 392.83 C 363.77 395.22, 362.97 396.36, 361.01 398.51 C 359.05 400.65, 357.91 401.71, 355.35 403.55 C 352.79 405.40, 351.33 406.29, 348.22 407.75 C 345.11 409.21, 343.33 409.85, 339.81 410.84 C 336.29 411.84, 334.33 412.25, 330.62 412.72 C 326.91 413.19, 324.90 413.31, 321.27 413.20 C 317.64 413.09, 315.74 412.88, 312.47 412.18 C 309.20 411.47, 307.58 410.90, 304.94 409.69 C 302.30 408.49, 301.20 407.62, 299.27 406.15 C 297.35 404.69, 296.52 403.95, 295.31 402.35 C 294.10 400.75, 293.69 399.89, 293.21 398.14 C 292.74 396.40, 292.71 395.46, 292.93 393.62 C 293.15 391.78, 293.44 390.79, 294.32 388.94 C 295.20 387.09, 295.86 386.12, 297.32 384.37 C 298.77 382.61, 299.71 381.70, 301.61 380.17 C 303.51 378.65, 304.66 377.93, 306.82 376.74 C 308.99 375.55, 310.24 375.02, 312.44 374.24 C 314.63 373.45, 315.80 373.17, 317.79 372.83 C 319.78 372.49, 320.78 372.52, 322.39 372.54 C 324.00 372.56, 324.71 372.76, 325.83 372.94 C 326.95 373.12, 327.35 373.27, 327.98 373.46 C 328.61 373.65, 328.81 373.65, 328.97 373.90 C 329.13 374.16, 329.12 374.26, 328.79 374.74 C 328.46 375.23, 328.18 375.57, 327.31 376.31 C 326.44 377.06, 325.82 377.56, 324.45 378.47 C 323.09 379.38, 322.20 379.94, 320.48 380.88 C 318.76 381.82, 317.75 382.33, 315.87 383.15 C 313.98 383.98, 312.89 384.27, 311.06 385.01 C 309.22 385.74, 308.16 386.03, 306.68 386.83 C 305.20 387.64, 304.54 388.10, 303.67 389.04 C 302.79 389.98, 302.38 390.47, 302.32 391.53 C 302.27 392.59, 302.65 393.58, 303.39 394.34" style="stroke: black; fill: black;"/><path d="M 482.47,379.58 C 483.06 378.53, 483.05 377.48, 482.55 376.04 C 482.06 374.59, 481.44 373.66, 480.00 372.36 C 478.56 371.06, 477.40 370.32, 475.35 369.53 C 473.30 368.74, 472.08 368.61, 469.75 368.40 C 467.41 368.19, 466.18 368.19, 463.67 368.48 C 461.17 368.78, 459.79 369.06, 457.23 369.87 C 454.67 370.69, 453.32 371.26, 450.87 372.56 C 448.42 373.86, 447.15 374.65, 444.98 376.39 C 442.81 378.12, 441.71 379.13, 440.01 381.24 C 438.31 383.36, 437.51 384.57, 436.46 386.98 C 435.42 389.39, 435.00 390.74, 434.77 393.31 C 434.54 395.88, 434.63 397.31, 435.33 399.83 C 436.03 402.36, 436.64 403.69, 438.29 405.92 C 439.93 408.15, 441.05 409.29, 443.55 410.99 C 446.04 412.69, 447.63 413.43, 450.74 414.42 C 453.85 415.41, 455.67 415.62, 459.10 415.94 C 462.53 416.26, 464.42 416.25, 467.90 416.03 C 471.37 415.80, 473.17 415.52, 476.48 414.81 C 479.78 414.10, 481.51 413.71, 484.41 412.47 C 487.32 411.23, 488.72 410.44, 490.99 408.62 C 493.26 406.80, 494.28 405.62, 495.77 403.38 C 497.25 401.14, 497.81 399.89, 498.41 397.43 C 499.01 394.97, 499.07 393.56, 498.79 391.08 C 498.51 388.59, 498.08 387.27, 497.02 385.00 C 495.96 382.73, 495.11 381.63, 493.50 379.72 C 491.89 377.81, 490.91 376.77, 488.98 375.44 C 487.05 374.11, 485.70 373.52, 483.84 373.07 C 481.98 372.63, 480.75 372.68, 479.68 373.21 C 478.61 373.75, 478.30 374.60, 478.49 375.73 C 478.68 376.86, 479.49 377.63, 480.63 378.85 C 481.78 380.06, 482.76 380.63, 484.19 381.82 C 485.62 383.02, 486.53 383.51, 487.77 384.81 C 489.02 386.11, 489.61 386.87, 490.43 388.32 C 491.25 389.77, 491.58 390.55, 491.86 392.06 C 492.15 393.57, 492.21 394.37, 491.87 395.88 C 491.53 397.38, 491.21 398.12, 490.18 399.57 C 489.15 401.02, 488.44 401.85, 486.73 403.12 C 485.01 404.38, 483.96 404.91, 481.61 405.92 C 479.26 406.93, 477.80 407.50, 474.98 408.18 C 472.15 408.85, 470.52 409.12, 467.50 409.28 C 464.49 409.43, 462.78 409.36, 459.91 408.94 C 457.05 408.53, 455.59 408.10, 453.16 407.22 C 450.73 406.35, 449.61 405.73, 447.78 404.58 C 445.94 403.42, 445.15 402.79, 444.00 401.45 C 442.86 400.12, 442.50 399.38, 442.05 397.89 C 441.59 396.40, 441.53 395.58, 441.71 393.99 C 441.89 392.40, 442.16 391.56, 442.95 389.96 C 443.75 388.36, 444.34 387.50, 445.68 386.00 C 447.02 384.49, 447.89 383.72, 449.64 382.42 C 451.39 381.12, 452.45 380.50, 454.45 379.51 C 456.44 378.53, 457.57 378.13, 459.62 377.50 C 461.67 376.87, 462.79 376.65, 464.70 376.37 C 466.60 376.09, 467.60 376.01, 469.14 376.11 C 470.67 376.20, 471.24 376.35, 472.35 376.86 C 473.47 377.36, 473.79 377.93, 474.70 378.62 C 475.60 379.30, 475.90 379.75, 476.88 380.28 C 477.87 380.81, 478.48 381.40, 479.60 381.26 C 480.72 381.12, 481.88 380.62, 482.47 379.58" style="stroke: black; fill: black;"/><path d="M 520.75,403.03 C 519.73 403.42, 519.33 403.99, 518.71 405.13 C 518.08 406.27, 517.88 407.10, 517.60 408.74 C 517.32 410.37, 517.40 411.39, 517.30 413.31 C 517.19 415.23, 517.26 416.28, 517.07 418.33 C 516.89 420.38, 516.68 421.45, 516.37 423.55 C 516.07 425.66, 515.64 426.88, 515.56 428.88 C 515.48 430.87, 515.57 432.01, 515.96 433.53 C 516.34 435.05, 516.69 435.86, 517.48 436.49 C 518.28 437.13, 519.04 437.16, 519.93 436.70 C 520.82 436.23, 521.22 435.51, 521.92 434.17 C 522.61 432.83, 522.92 431.88, 523.39 430.00 C 523.86 428.12, 523.93 426.89, 524.28 424.76 C 524.62 422.63, 524.77 421.48, 525.11 419.34 C 525.46 417.20, 525.74 416.09, 525.98 414.08 C 526.22 412.06, 526.40 410.97, 526.32 409.25 C 526.23 407.53, 526.07 406.70, 525.56 405.49 C 525.06 404.28, 524.75 403.71, 523.78 403.21 C 522.82 402.72, 521.76 402.65, 520.75 403.03" style="stroke: black; fill: black;"/><path d="M 545.96,331.51 C 544.93 331.96, 544.50 332.64, 543.88 334.00 C 543.26 335.36, 543.08 336.32, 542.86 338.30 C 542.64 340.27, 542.71 341.51, 542.79 343.90 C 542.88 346.28, 543.10 347.60, 543.28 350.21 C 543.47 352.82, 543.52 354.16, 543.73 356.94 C 543.93 359.71, 544.06 361.20, 544.32 364.09 C 544.59 366.98, 544.75 368.49, 545.06 371.40 C 545.38 374.31, 545.50 375.83, 545.89 378.64 C 546.28 381.45, 546.55 382.85, 547.02 385.44 C 547.49 388.03, 547.74 389.27, 548.23 391.59 C 548.72 393.91, 548.79 395.11, 549.47 397.03 C 550.15 398.94, 550.72 399.96, 551.64 401.16 C 552.56 402.37, 553.14 402.84, 554.06 403.07 C 554.98 403.30, 555.67 403.04, 556.26 402.30 C 556.85 401.56, 556.96 400.81, 556.99 399.37 C 557.02 397.94, 556.77 396.96, 556.42 395.12 C 556.07 393.28, 555.68 392.34, 555.25 390.16 C 554.83 387.98, 554.67 386.74, 554.30 384.24 C 553.93 381.73, 553.75 380.35, 553.39 377.62 C 553.03 374.90, 552.80 373.43, 552.50 370.60 C 552.20 367.77, 552.08 366.31, 551.89 363.49 C 551.71 360.67, 551.67 359.22, 551.57 356.50 C 551.47 353.78, 551.42 352.44, 551.40 349.89 C 551.38 347.34, 551.48 346.05, 551.49 343.75 C 551.49 341.46, 551.60 340.31, 551.44 338.43 C 551.28 336.55, 551.17 335.68, 550.69 334.35 C 550.21 333.02, 549.97 332.33, 549.03 331.76 C 548.08 331.19, 546.99 331.06, 545.96 331.51" style="stroke: black; fill: black;"/><path d="M 591.52,325.95 C 590.40 326.34, 589.78 326.95, 589.05 328.12 C 588.33 329.28, 587.96 330.34, 587.90 331.76 C 587.83 333.18, 588.16 334.06, 588.75 335.23 C 589.33 336.40, 589.88 337.13, 590.83 337.63 C 591.78 338.13, 592.53 338.10, 593.51 337.72 C 594.49 337.33, 595.00 336.70, 595.73 335.69 C 596.46 334.68, 596.95 334.05, 597.17 332.68 C 597.38 331.30, 597.31 330.12, 596.81 328.82 C 596.31 327.51, 595.72 326.73, 594.66 326.15 C 593.60 325.58, 592.64 325.56, 591.52 325.95" style="stroke: black; fill: black;"/><path d="M 616.89,376.10 C 615.98 376.53, 615.76 377.00, 615.30 377.98 C 614.85 378.96, 614.66 379.58, 614.62 380.99 C 614.58 382.41, 614.80 383.36, 615.08 385.06 C 615.37 386.76, 615.73 387.65, 616.05 389.51 C 616.38 391.37, 616.46 392.39, 616.71 394.37 C 616.96 396.34, 617.06 397.46, 617.31 399.40 C 617.55 401.34, 617.66 402.35, 617.93 404.05 C 618.19 405.75, 618.11 406.66, 618.62 407.91 C 619.12 409.17, 619.45 409.77, 620.45 410.31 C 621.45 410.86, 622.39 410.90, 623.61 410.64 C 624.84 410.39, 625.70 410.04, 626.57 409.03 C 627.45 408.02, 627.72 407.22, 627.99 405.60 C 628.26 403.97, 627.92 402.87, 627.92 400.90 C 627.92 398.93, 627.82 397.84, 627.99 395.77 C 628.17 393.69, 628.35 392.59, 628.79 390.52 C 629.24 388.45, 629.52 387.37, 630.23 385.41 C 630.93 383.45, 631.35 382.47, 632.32 380.73 C 633.29 378.99, 633.86 378.12, 635.06 376.71 C 636.25 375.29, 636.92 374.65, 638.30 373.66 C 639.69 372.66, 640.49 372.28, 641.99 371.73 C 643.49 371.18, 644.30 370.99, 645.82 370.90 C 647.33 370.80, 648.10 370.86, 649.56 371.25 C 651.02 371.64, 651.76 371.95, 653.11 372.85 C 654.46 373.75, 655.11 374.35, 656.32 375.75 C 657.52 377.14, 658.14 378.03, 659.15 379.83 C 660.16 381.62, 660.62 382.66, 661.37 384.73 C 662.12 386.80, 662.39 388.00, 662.90 390.17 C 663.41 392.35, 663.58 393.56, 663.91 395.61 C 664.25 397.65, 664.08 398.75, 664.58 400.39 C 665.08 402.04, 665.34 402.95, 666.42 403.83 C 667.50 404.71, 668.56 405.00, 669.97 404.80 C 671.38 404.61, 672.33 404.09, 673.48 402.86 C 674.63 401.63, 675.03 400.61, 675.71 398.65 C 676.38 396.68, 676.29 395.29, 676.83 393.04 C 677.38 390.80, 677.60 389.56, 678.42 387.42 C 679.24 385.29, 679.77 384.25, 680.94 382.36 C 682.11 380.46, 682.83 379.54, 684.26 377.94 C 685.68 376.34, 686.52 375.57, 688.07 374.35 C 689.62 373.13, 690.45 372.57, 691.99 371.83 C 693.54 371.08, 694.31 370.84, 695.79 370.64 C 697.26 370.44, 698.00 370.46, 699.38 370.83 C 700.76 371.20, 701.41 371.54, 702.71 372.47 C 704.00 373.40, 704.66 374.02, 705.86 375.48 C 707.06 376.95, 707.64 377.84, 708.71 379.80 C 709.78 381.75, 710.26 382.93, 711.20 385.25 C 712.13 387.56, 712.57 388.86, 713.37 391.36 C 714.17 393.86, 714.45 395.25, 715.22 397.76 C 715.98 400.26, 716.38 401.69, 717.18 403.87 C 717.99 406.05, 718.48 407.10, 719.25 408.64 C 720.02 410.19, 720.28 410.73, 721.02 411.59 C 721.76 412.44, 722.28 412.67, 722.93 412.93 C 723.58 413.19, 723.84 413.06, 724.28 412.90 C 724.73 412.74, 724.86 412.47, 725.15 412.14 C 725.45 411.81, 725.58 411.79, 725.76 411.25 C 725.93 410.71, 726.07 410.41, 726.03 409.44 C 725.99 408.48, 725.87 408.01, 725.54 406.44 C 725.22 404.86, 724.99 403.75, 724.41 401.57 C 723.83 399.39, 723.37 398.07, 722.65 395.56 C 721.93 393.04, 721.63 391.67, 720.81 389.01 C 719.98 386.36, 719.59 384.91, 718.53 382.29 C 717.48 379.67, 716.92 378.29, 715.53 375.92 C 714.14 373.55, 713.35 372.36, 711.58 370.45 C 709.80 368.53, 708.78 367.64, 706.66 366.36 C 704.54 365.08, 703.33 364.57, 700.99 364.05 C 698.65 363.54, 697.35 363.52, 694.98 363.78 C 692.61 364.03, 691.40 364.38, 689.13 365.32 C 686.86 366.26, 685.70 366.95, 683.62 368.47 C 681.54 369.99, 680.53 370.98, 678.73 372.94 C 676.93 374.90, 676.14 376.03, 674.63 378.26 C 673.12 380.49, 672.44 381.70, 671.18 384.09 C 669.92 386.49, 669.31 387.83, 668.32 390.23 C 667.33 392.64, 666.66 393.98, 666.23 396.10 C 665.81 398.22, 665.79 399.37, 666.19 400.83 C 666.58 402.30, 667.28 403.00, 668.21 403.42 C 669.14 403.84, 670.11 403.70, 670.85 402.93 C 671.59 402.15, 671.79 401.24, 671.91 399.55 C 672.03 397.87, 671.73 396.72, 671.44 394.50 C 671.15 392.28, 671.01 390.94, 670.46 388.46 C 669.91 385.97, 669.60 384.57, 668.69 382.06 C 667.77 379.56, 667.23 378.23, 665.88 375.94 C 664.53 373.65, 663.71 372.47, 661.93 370.60 C 660.16 368.74, 659.13 367.88, 657.01 366.61 C 654.89 365.34, 653.67 364.83, 651.34 364.26 C 649.01 363.68, 647.73 363.61, 645.38 363.75 C 643.02 363.89, 641.81 364.18, 639.56 364.97 C 637.32 365.76, 636.17 366.34, 634.16 367.72 C 632.15 369.10, 631.18 370.00, 629.51 371.86 C 627.84 373.71, 627.10 374.84, 625.82 377.01 C 624.55 379.18, 624.06 380.40, 623.14 382.72 C 622.22 385.04, 621.88 386.26, 621.22 388.63 C 620.56 391.00, 620.30 392.25, 619.83 394.56 C 619.36 396.88, 619.17 398.11, 618.86 400.21 C 618.55 402.30, 618.20 403.37, 618.27 405.03 C 618.35 406.68, 618.51 407.50, 619.24 408.50 C 619.97 409.50, 620.86 409.85, 621.93 410.02 C 622.99 410.19, 623.84 409.96, 624.57 409.35 C 625.30 408.75, 625.40 408.20, 625.58 406.99 C 625.75 405.77, 625.54 404.95, 625.46 403.27 C 625.37 401.59, 625.29 400.54, 625.13 398.59 C 624.97 396.64, 624.83 395.54, 624.65 393.53 C 624.48 391.51, 624.41 390.46, 624.28 388.52 C 624.14 386.57, 624.19 385.56, 623.98 383.80 C 623.78 382.04, 623.70 381.06, 623.26 379.73 C 622.81 378.41, 622.44 377.96, 621.77 377.18 C 621.09 376.40, 620.86 376.04, 619.89 375.83 C 618.91 375.61, 617.81 375.66, 616.89 376.10" style="stroke: black; fill: black;"/><path d="M 809.65,374.11 C 808.77 374.72, 808.57 375.36, 808.19 376.78 C 807.80 378.20, 807.66 379.11, 807.73 381.22 C 807.80 383.34, 808.05 384.73, 808.53 387.35 C 809.01 389.98, 809.52 391.37, 810.11 394.36 C 810.71 397.34, 810.98 398.97, 811.51 402.28 C 812.04 405.58, 812.28 407.39, 812.76 410.90 C 813.23 414.40, 813.48 416.24, 813.90 419.80 C 814.32 423.36, 814.53 425.21, 814.86 428.69 C 815.20 432.17, 815.38 433.98, 815.56 437.21 C 815.74 440.43, 815.61 442.06, 815.76 444.81 C 815.92 447.56, 816.00 448.88, 816.34 450.96 C 816.67 453.03, 816.94 453.90, 817.45 455.19 C 817.95 456.47, 818.19 456.94, 818.86 457.38 C 819.54 457.82, 820.14 457.84, 820.81 457.38 C 821.49 456.93, 821.77 456.45, 822.23 455.11 C 822.69 453.76, 822.97 452.82, 823.12 450.66 C 823.28 448.51, 823.23 447.13, 823.01 444.32 C 822.78 441.51, 822.41 439.87, 821.99 436.61 C 821.57 433.36, 821.33 431.54, 820.91 428.04 C 820.49 424.54, 820.29 422.69, 819.89 419.12 C 819.50 415.54, 819.30 413.69, 818.95 410.17 C 818.60 406.64, 818.40 404.84, 818.14 401.49 C 817.87 398.14, 817.80 396.48, 817.63 393.41 C 817.47 390.34, 817.58 388.82, 817.31 386.13 C 817.05 383.45, 816.86 382.04, 816.33 379.99 C 815.80 377.94, 815.42 377.14, 814.68 375.89 C 813.93 374.64, 813.60 374.09, 812.59 373.73 C 811.58 373.38, 810.53 373.51, 809.65 374.11" style="stroke: black; fill: black;"/><path d="M 801.72,381.62 C 802.90 381.56, 803.52 380.69, 804.79 379.74 C 806.05 378.79, 806.53 378.11, 808.05 376.88 C 809.56 375.64, 810.38 374.74, 812.37 373.54 C 814.36 372.33, 815.48 371.74, 818.00 370.85 C 820.53 369.95, 822.11 369.52, 824.99 369.05 C 827.88 368.57, 829.49 368.42, 832.42 368.48 C 835.36 368.55, 836.92 368.73, 839.67 369.37 C 842.42 370.01, 843.84 370.58, 846.18 371.68 C 848.52 372.78, 849.61 373.47, 851.37 374.87 C 853.14 376.28, 853.90 377.09, 854.99 378.71 C 856.09 380.33, 856.45 381.23, 856.84 382.96 C 857.22 384.70, 857.20 385.63, 856.93 387.39 C 856.65 389.14, 856.34 390.09, 855.47 391.76 C 854.59 393.43, 853.99 394.27, 852.54 395.74 C 851.09 397.21, 850.18 397.92, 848.22 399.10 C 846.26 400.27, 845.07 400.79, 842.76 401.61 C 840.45 402.44, 839.13 402.79, 836.67 403.22 C 834.22 403.65, 832.88 403.73, 830.46 403.75 C 828.04 403.76, 826.72 403.61, 824.57 403.30 C 822.41 402.99, 821.40 402.67, 819.70 402.19 C 818.00 401.72, 817.39 401.43, 816.08 400.94 C 814.77 400.45, 814.16 399.63, 813.15 399.75 C 812.14 399.87, 811.15 400.36, 811.03 401.53 C 810.90 402.70, 811.28 404.14, 812.51 405.60 C 813.75 407.05, 815.02 407.81, 817.18 408.81 C 819.35 409.80, 820.68 410.07, 823.33 410.58 C 825.98 411.08, 827.50 411.29, 830.43 411.33 C 833.35 411.37, 834.96 411.27, 837.95 410.78 C 840.94 410.29, 842.51 409.92, 845.37 408.88 C 848.23 407.85, 849.72 407.20, 852.25 405.61 C 854.77 404.02, 856.02 403.03, 857.98 400.91 C 859.94 398.79, 860.84 397.53, 862.03 395.01 C 863.23 392.49, 863.66 391.02, 863.97 388.29 C 864.27 385.57, 864.19 384.08, 863.55 381.40 C 862.92 378.73, 862.31 377.33, 860.77 374.92 C 859.23 372.52, 858.18 371.32, 855.85 369.38 C 853.53 367.45, 852.08 366.59, 849.14 365.26 C 846.20 363.92, 844.46 363.43, 841.15 362.72 C 837.85 362.01, 836.04 361.82, 832.62 361.70 C 829.20 361.58, 827.41 361.74, 824.05 362.11 C 820.68 362.49, 818.96 362.77, 815.80 363.59 C 812.64 364.42, 810.94 364.79, 808.25 366.24 C 805.55 367.68, 804.14 368.90, 802.32 370.81 C 800.50 372.72, 799.84 373.95, 799.15 375.80 C 798.46 377.65, 798.35 378.91, 798.87 380.07 C 799.38 381.23, 800.53 381.69, 801.72 381.62" style="stroke: black; fill: black;"/><path d="M 886.18,369.93 C 885.24 370.23, 884.86 370.57, 884.34 371.53 C 883.82 372.50, 883.55 373.24, 883.59 374.74 C 883.63 376.24, 883.90 377.24, 884.53 379.03 C 885.16 380.82, 885.71 381.83, 886.76 383.70 C 887.81 385.57, 888.43 386.58, 889.79 388.39 C 891.14 390.20, 891.90 391.13, 893.53 392.75 C 895.17 394.38, 896.06 395.20, 897.96 396.52 C 899.85 397.85, 900.90 398.47, 903.00 399.37 C 905.11 400.27, 906.26 400.63, 908.49 401.02 C 910.72 401.41, 911.92 401.48, 914.17 401.32 C 916.42 401.16, 917.58 400.90, 919.74 400.21 C 921.89 399.52, 922.96 399.02, 924.95 397.86 C 926.93 396.70, 927.95 395.96, 929.66 394.40 C 931.37 392.84, 932.17 391.84, 933.49 390.06 C 934.80 388.28, 935.29 387.25, 936.21 385.50 C 937.13 383.75, 937.69 382.85, 938.08 381.31 C 938.47 379.77, 938.63 378.83, 938.16 377.82 C 937.68 376.81, 936.75 376.31, 935.70 376.26 C 934.64 376.21, 933.69 376.52, 932.90 377.55 C 932.10 378.58, 931.83 379.49, 931.72 381.41 C 931.61 383.32, 931.91 384.59, 932.36 387.12 C 932.81 389.65, 933.22 391.12, 933.95 394.05 C 934.67 396.98, 935.18 398.57, 935.99 401.76 C 936.80 404.95, 937.22 406.63, 938.00 410.01 C 938.79 413.39, 939.21 415.19, 939.92 418.66 C 940.63 422.13, 940.99 423.93, 941.55 427.37 C 942.10 430.81, 942.37 432.58, 942.68 435.85 C 942.99 439.13, 943.10 440.78, 943.10 443.75 C 943.10 446.72, 942.93 448.17, 942.68 450.71 C 942.43 453.24, 942.34 454.45, 941.84 456.43 C 941.34 458.40, 940.99 459.24, 940.16 460.58 C 939.32 461.93, 938.84 462.42, 937.67 463.17 C 936.50 463.92, 935.85 464.11, 934.32 464.35 C 932.79 464.59, 931.91 464.59, 930.02 464.36 C 928.13 464.13, 927.04 463.89, 924.87 463.20 C 922.71 462.52, 921.46 462.04, 919.18 460.95 C 916.90 459.86, 915.62 459.22, 913.47 457.76 C 911.32 456.30, 910.23 455.41, 908.44 453.66 C 906.65 451.92, 905.77 450.97, 904.53 449.03 C 903.29 447.09, 902.79 446.09, 902.24 443.98 C 901.68 441.87, 901.62 440.76, 901.75 438.48 C 901.89 436.19, 902.14 435.00, 902.92 432.57 C 903.70 430.14, 904.23 428.81, 905.66 426.30 C 907.09 423.79, 908.00 422.46, 910.07 420.03 C 912.13 417.60, 913.38 416.36, 915.97 414.14 C 918.56 411.93, 920.07 410.84, 923.03 408.95 C 926.00 407.06, 927.66 406.18, 930.79 404.69 C 933.92 403.19, 935.62 402.53, 938.70 401.49 C 941.77 400.45, 943.35 400.10, 946.17 399.49 C 949.00 398.88, 950.36 398.82, 952.83 398.46 C 955.30 398.09, 956.66 398.10, 958.51 397.68 C 960.36 397.25, 961.01 396.89, 962.09 396.31 C 963.17 395.74, 963.60 395.47, 963.93 394.80 C 964.25 394.12, 964.17 393.54, 963.73 392.94 C 963.29 392.35, 962.89 392.23, 961.73 391.83 C 960.58 391.43, 959.94 391.06, 957.94 390.96 C 955.95 390.85, 954.44 390.90, 951.76 391.31 C 949.07 391.72, 947.57 392.14, 944.54 393.01 C 941.50 393.89, 939.85 394.42, 936.59 395.69 C 933.32 396.95, 931.54 397.70, 928.20 399.35 C 924.86 401.01, 923.10 401.94, 919.87 403.96 C 916.65 405.99, 915.01 407.11, 912.09 409.47 C 909.17 411.84, 907.73 413.13, 905.28 415.78 C 902.83 418.44, 901.67 419.87, 899.82 422.77 C 897.98 425.67, 897.11 427.21, 896.05 430.27 C 894.99 433.34, 894.66 435.01, 894.52 438.11 C 894.39 441.21, 894.61 442.84, 895.37 445.77 C 896.13 448.71, 896.79 450.16, 898.33 452.80 C 899.87 455.44, 900.92 456.72, 903.07 458.96 C 905.21 461.21, 906.55 462.20, 909.07 464.02 C 911.60 465.84, 912.97 466.73, 915.68 468.09 C 918.39 469.45, 919.86 470.04, 922.62 470.81 C 925.39 471.59, 926.84 471.89, 929.51 471.96 C 932.17 472.04, 933.55 471.89, 935.93 471.21 C 938.31 470.52, 939.47 469.95, 941.40 468.55 C 943.34 467.15, 944.22 466.23, 945.62 464.19 C 947.02 462.15, 947.57 460.92, 948.40 458.35 C 949.23 455.79, 949.51 454.32, 949.76 451.36 C 950.02 448.40, 949.87 446.80, 949.68 443.56 C 949.50 440.32, 949.28 438.60, 948.85 435.17 C 948.42 431.73, 948.11 429.93, 947.52 426.39 C 946.93 422.86, 946.56 421.03, 945.90 417.49 C 945.24 413.96, 944.85 412.14, 944.23 408.72 C 943.61 405.30, 943.25 403.61, 942.78 400.40 C 942.31 397.19, 942.15 395.59, 941.88 392.70 C 941.61 389.80, 941.64 388.36, 941.44 385.94 C 941.24 383.52, 941.33 382.35, 940.89 380.58 C 940.45 378.81, 940.19 378.11, 939.25 377.10 C 938.31 376.09, 937.45 375.73, 936.19 375.54 C 934.93 375.34, 933.95 375.50, 932.94 376.12 C 931.94 376.74, 931.81 377.46, 931.15 378.64 C 930.50 379.81, 930.42 380.61, 929.66 381.97 C 928.90 383.34, 928.41 384.11, 927.37 385.46 C 926.32 386.82, 925.70 387.57, 924.43 388.76 C 923.17 389.96, 922.45 390.54, 921.05 391.43 C 919.64 392.33, 918.89 392.71, 917.40 393.24 C 915.91 393.77, 915.14 393.95, 913.62 394.08 C 912.09 394.20, 911.30 394.16, 909.77 393.87 C 908.24 393.59, 907.46 393.34, 905.97 392.65 C 904.49 391.97, 903.74 391.49, 902.36 390.45 C 900.98 389.40, 900.28 388.75, 899.08 387.42 C 897.87 386.10, 897.29 385.32, 896.33 383.82 C 895.37 382.32, 894.95 381.45, 894.29 379.92 C 893.64 378.39, 893.48 377.52, 893.05 376.16 C 892.62 374.79, 892.59 374.09, 892.14 373.08 C 891.69 372.07, 891.42 371.73, 890.80 371.12 C 890.18 370.51, 889.97 370.25, 889.04 370.01 C 888.12 369.77, 887.12 369.62, 886.18 369.93" style="stroke: black; fill: black;"/><path d="M 1003.41,394.34 C 1004.47 393.90, 1004.93 393.13, 1005.36 391.92 C 1005.79 390.70, 1005.81 389.86, 1005.55 388.26 C 1005.29 386.66, 1004.96 385.57, 1004.06 383.91 C 1003.17 382.25, 1002.47 381.44, 1001.09 379.95 C 999.71 378.47, 998.91 377.77, 997.16 376.47 C 995.41 375.17, 994.44 374.52, 992.34 373.45 C 990.25 372.38, 989.04 371.88, 986.68 371.11 C 984.33 370.35, 983.04 370.04, 980.55 369.63 C 978.07 369.21, 976.78 369.07, 974.27 369.03 C 971.76 369.00, 970.43 369.03, 968.02 369.45 C 965.60 369.87, 964.34 370.20, 962.19 371.13 C 960.04 372.06, 958.98 372.68, 957.28 374.09 C 955.58 375.51, 954.80 376.37, 953.70 378.21 C 952.60 380.04, 952.13 381.14, 951.77 383.26 C 951.41 385.38, 951.42 386.63, 951.89 388.80 C 952.36 390.97, 952.88 392.16, 954.13 394.11 C 955.39 396.07, 956.30 397.04, 958.16 398.56 C 960.03 400.08, 961.24 400.71, 963.45 401.70 C 965.66 402.69, 966.87 403.04, 969.20 403.50 C 971.53 403.96, 972.85 404.08, 975.10 404.01 C 977.35 403.94, 978.50 403.75, 980.46 403.16 C 982.41 402.58, 983.36 402.15, 984.88 401.09 C 986.40 400.03, 987.10 399.32, 988.05 397.86 C 989.01 396.41, 989.33 395.46, 989.65 393.81 C 989.98 392.17, 989.86 391.27, 989.68 389.64 C 989.50 388.00, 989.49 387.06, 988.76 385.63 C 988.02 384.20, 987.44 383.19, 986.00 382.49 C 984.56 381.79, 983.14 381.74, 981.56 382.13 C 979.97 382.52, 979.11 383.15, 978.08 384.44 C 977.05 385.73, 976.69 386.61, 976.41 388.58 C 976.14 390.55, 976.36 391.82, 976.72 394.29 C 977.07 396.76, 977.48 398.17, 978.20 400.93 C 978.93 403.69, 979.47 405.11, 980.35 408.09 C 981.23 411.06, 981.68 412.64, 982.59 415.81 C 983.49 418.98, 983.96 420.66, 984.87 423.95 C 985.78 427.23, 986.28 428.94, 987.12 432.23 C 987.97 435.52, 988.34 437.16, 989.09 440.40 C 989.83 443.64, 990.24 445.34, 990.85 448.41 C 991.45 451.48, 991.63 452.98, 992.10 455.75 C 992.57 458.52, 992.82 459.86, 993.19 462.27 C 993.56 464.68, 993.73 465.80, 993.93 467.80 C 994.14 469.79, 994.18 470.69, 994.22 472.25 C 994.26 473.80, 994.22 474.47, 994.15 475.58 C 994.09 476.69, 993.96 477.15, 993.90 477.82 C 993.84 478.49, 993.81 478.68, 993.87 478.94 C 993.92 479.19, 994.01 479.13, 994.18 479.11 C 994.34 479.09, 994.39 478.96, 994.68 478.85 C 994.97 478.73, 995.26 478.54, 995.61 478.53 C 995.97 478.52, 996.19 478.70, 996.45 478.80 C 996.72 478.91, 996.73 479.00, 996.92 479.06 C 997.11 479.12, 997.29 479.18, 997.39 479.12 C 997.49 479.06, 997.56 478.90, 997.41 478.77 C 997.27 478.64, 997.17 478.46, 996.67 478.47 C 996.18 478.47, 995.88 478.59, 994.94 478.78 C 994.01 478.96, 992.89 479.10, 991.98 479.39 C 991.06 479.68, 990.79 480.00, 990.36 480.23 C 989.93 480.47, 989.91 480.42, 989.84 480.58 C 989.76 480.73, 989.81 480.76, 989.98 481.00 C 990.16 481.24, 990.41 481.46, 990.71 481.79 C 991.02 482.12, 991.06 482.33, 991.51 482.68 C 991.97 483.02, 992.30 483.37, 992.96 483.52 C 993.63 483.68, 994.12 483.59, 994.84 483.46 C 995.56 483.33, 995.85 483.23, 996.56 482.87 C 997.26 482.51, 997.71 482.36, 998.34 481.67 C 998.98 480.98, 999.29 480.50, 999.72 479.43 C 1000.15 478.35, 1000.25 477.73, 1000.47 476.30 C 1000.70 474.87, 1000.78 474.10, 1000.84 472.29 C 1000.91 470.48, 1000.93 469.45, 1000.80 467.25 C 1000.67 465.04, 1000.54 463.83, 1000.19 461.27 C 999.85 458.71, 999.66 457.30, 999.08 454.44 C 998.50 451.59, 998.05 450.09, 997.28 446.98 C 996.52 443.88, 996.06 442.18, 995.24 438.92 C 994.43 435.66, 994.03 434.01, 993.20 430.69 C 992.36 427.37, 991.89 425.63, 991.07 422.32 C 990.25 419.02, 989.81 417.34, 989.10 414.16 C 988.39 410.98, 988.03 409.40, 987.53 406.42 C 987.02 403.44, 986.93 401.95, 986.57 399.26 C 986.21 396.57, 986.05 395.16, 985.73 392.98 C 985.42 390.80, 985.34 389.79, 984.98 388.36 C 984.62 386.93, 984.51 386.45, 983.93 385.84 C 983.36 385.23, 982.79 385.09, 982.11 385.33 C 981.43 385.56, 980.72 386.20, 980.52 387.01 C 980.32 387.81, 980.72 388.47, 981.10 389.34 C 981.47 390.21, 982.01 390.59, 982.40 391.35 C 982.78 392.11, 982.93 392.51, 983.02 393.13 C 983.11 393.76, 983.17 394.00, 982.86 394.47 C 982.55 394.95, 982.31 395.15, 981.49 395.50 C 980.68 395.86, 980.08 396.04, 978.79 396.24 C 977.51 396.43, 976.68 396.54, 975.07 396.48 C 973.47 396.43, 972.45 396.35, 970.76 395.97 C 969.08 395.60, 968.18 395.33, 966.62 394.62 C 965.07 393.92, 964.24 393.42, 962.99 392.47 C 961.74 391.52, 961.19 390.96, 960.38 389.87 C 959.57 388.78, 959.29 388.15, 958.94 387.04 C 958.59 385.92, 958.52 385.34, 958.63 384.28 C 958.74 383.22, 958.91 382.68, 959.50 381.73 C 960.09 380.78, 960.50 380.30, 961.58 379.52 C 962.65 378.74, 963.36 378.38, 964.88 377.83 C 966.40 377.29, 967.34 377.05, 969.17 376.80 C 971.01 376.55, 972.07 376.51, 974.07 376.59 C 976.07 376.68, 977.16 376.82, 979.18 377.22 C 981.20 377.62, 982.26 377.92, 984.17 378.59 C 986.07 379.26, 987.03 379.71, 988.70 380.57 C 990.37 381.42, 991.17 381.94, 992.51 382.88 C 993.86 383.82, 994.53 384.34, 995.41 385.27 C 996.30 386.21, 996.51 386.60, 996.95 387.54 C 997.38 388.48, 997.31 389.05, 997.59 389.97 C 997.88 390.88, 997.87 391.29, 998.35 392.12 C 998.84 392.95, 999.02 393.69, 1000.03 394.13 C 1001.04 394.58, 1002.34 394.78, 1003.41 394.34" style="stroke: black; fill: black;"/><path d="M 1033.16,428.10 C 1033.85 427.79, 1033.76 427.42, 1033.01 427.47 C 1032.25 427.52, 1030.08 428.06, 1029.38 428.37 C 1028.69 428.67, 1028.78 429.04, 1029.54 428.99 C 1030.29 428.94, 1032.47 428.40, 1033.16 428.10" style="stroke: black; fill: black;"/></svg>